<svg width="16" height="16" viewBox="0 0 16 16" fill="none" xmlns="http://www.w3.org/2000/svg">
    <path fill-rule="evenodd" clip-rule="evenodd"
          d="M3 3V6.00573H6V3H3ZM10.0037 3V6.00573H13.0037V3H10.0037ZM3.00009 9.99427V13H6.00009V9.99427H3.00009ZM10.0037 9.99427V13H13.0037V9.99427H10.0037ZM2.2 2C2.08954 2 2 2.08965 2 2.20023V6.8055C2 6.91609 2.08954 7.00573 2.2 7.00573H6.8C6.91046 7.00573 7 6.91609 7 6.8055V2.20023C7 2.08965 6.91046 2 6.8 2H2.2ZM9.20374 2C9.09328 2 9.00374 2.08965 9.00374 2.20023V6.8055C9.00374 6.91609 9.09328 7.00573 9.20374 7.00573H13.8037C13.9142 7.00573 14.0037 6.91609 14.0037 6.8055V2.20023C14.0037 2.08965 13.9142 2 13.8037 2H9.20374ZM2.00009 9.1945C2.00009 9.08391 2.08964 8.99427 2.20009 8.99427H6.80009C6.91055 8.99427 7.00009 9.08391 7.00009 9.1945V13.7998C7.00009 13.9104 6.91055 14 6.80009 14H2.20009C2.08963 14 2.00009 13.9104 2.00009 13.7998V9.1945ZM9.20374 8.99427C9.09328 8.99427 9.00374 9.08391 9.00374 9.1945V13.7998C9.00374 13.9104 9.09328 14 9.20374 14H13.8037C13.9142 14 14.0037 13.9104 14.0037 13.7998V9.1945C14.0037 9.08391 13.9142 8.99427 13.8037 8.99427H9.20374Z"
          fill="var(--icon-color, #10111D)"/>
</svg>
